<?xml version="1.0" encoding="UTF-8" standalone="no"?>
<!-- Generator: Adobe Illustrator 18.0.0, SVG Export Plug-In . SVG Version: 6.00 Build 0)  -->

<svg
   xmlns:dc="http://purl.org/dc/elements/1.1/"
   xmlns:cc="http://creativecommons.org/ns#"
   xmlns:rdf="http://www.w3.org/1999/02/22-rdf-syntax-ns#"
   xmlns:svg="http://www.w3.org/2000/svg"
   xmlns="http://www.w3.org/2000/svg"
   xmlns:sodipodi="http://sodipodi.sourceforge.net/DTD/sodipodi-0.dtd"
   xmlns:inkscape="http://www.inkscape.org/namespaces/inkscape"
   version="1.1"
   id="Capa_1"
   x="0px"
   y="0px"
   viewBox="0 0 39.265699 55.454622"
   xml:space="preserve"
   sodipodi:docname="bookmark_level3.svg"
   width="39.265697"
   height="55.45462"
   inkscape:version="0.92.5 (2060ec1f9f, 2020-04-08)"><metadata
   id="metadata39"><rdf:RDF><cc:Work
       rdf:about=""><dc:format>image/svg+xml</dc:format><dc:type
         rdf:resource="http://purl.org/dc/dcmitype/StillImage" /><dc:title /></cc:Work></rdf:RDF></metadata><defs
   id="defs37" /><sodipodi:namedview
   pagecolor="#ffffff"
   bordercolor="#666666"
   borderopacity="1"
   objecttolerance="10"
   gridtolerance="10"
   guidetolerance="10"
   inkscape:pageopacity="0"
   inkscape:pageshadow="2"
   inkscape:window-width="1366"
   inkscape:window-height="694"
   id="namedview35"
   showgrid="false"
   fit-margin-top="0"
   fit-margin-left="0"
   fit-margin-right="0"
   fit-margin-bottom="0"
   inkscape:zoom="4.9100178"
   inkscape:cx="-64.806764"
   inkscape:cy="29.650714"
   inkscape:window-x="0"
   inkscape:window-y="0"
   inkscape:window-maximized="1"
   inkscape:current-layer="Capa_1" />
<path
   d="M 36.487983,1.7714068 H 2.7379832 c -0.553,0 -1,0.448 -1,1 V 48.836407 c 0,0.401 0.239,0.763 0.608,0.92 0.369,0.157 0.797,0.078 1.085,-0.2 l 16.1819998,-15.582 16.182,15.582 c 0.189,0.183 0.439,0.28 0.693,0.28 0.132,0 0.266,-0.026 0.392,-0.08 0.369,-0.157 0.608,-0.52 0.608,-0.92 V 2.7714068 c 0,-0.552 -0.448,-1 -1,-1 z m -1,44.7140002 -15.182,-14.619 c -0.193,-0.187 -0.443,-0.28 -0.693,-0.28 -0.25,0 -0.5,0.093 -0.693,0.28 l -15.1819998,14.619 V 3.7714068 H 35.487983 Z"
   id="path2"
   inkscape:connector-curvature="0" />
<g
   id="g4"
   transform="translate(-4.4200168,1.7714068)">
</g>
<g
   id="g6"
   transform="translate(-4.4200168,1.7714068)">
</g>
<g
   id="g8"
   transform="translate(-4.4200168,1.7714068)">
</g>
<g
   id="g10"
   transform="translate(-4.4200168,1.7714068)">
</g>
<g
   id="g12"
   transform="translate(-4.4200168,1.7714068)">
</g>
<g
   id="g14"
   transform="translate(-4.4200168,1.7714068)">
</g>
<g
   id="g16"
   transform="translate(-4.4200168,1.7714068)">
</g>
<g
   id="g18"
   transform="translate(-4.4200168,1.7714068)">
</g>
<g
   id="g20"
   transform="translate(-4.4200168,1.7714068)">
</g>
<g
   id="g22"
   transform="translate(-4.4200168,1.7714068)">
</g>
<g
   id="g24"
   transform="translate(-4.4200168,1.7714068)">
</g>
<g
   id="g26"
   transform="translate(-4.4200168,1.7714068)">
</g>
<g
   id="g28"
   transform="translate(-4.4200168,1.7714068)">
</g>
<g
   id="g30"
   transform="translate(-4.4200168,1.7714068)">
</g>
<g
   id="g32"
   transform="translate(-4.4200168,1.7714068)">
</g>
<path
   style="opacity:1;vector-effect:none;fill:#ff24c5;fill-opacity:0.99557525;stroke:#ff24c5;stroke-width:7.69758463;stroke-linecap:butt;stroke-linejoin:miter;stroke-miterlimit:4;stroke-dasharray:none;stroke-dashoffset:0;stroke-opacity:0.99607843"
   d="M 3.8487923,25.05421 V 3.8487923 H 19.632849 35.416906 V 25.076872 46.304952 L 33.533002,44.461896 C 24.061814,35.19606 20.13251,31.547266 19.625525,31.547266 c -0.408291,0 -1.170779,0.613544 -3.227119,2.596732 -1.480883,1.428203 -4.910362,4.738484 -7.6210648,7.356181 l -4.9285489,4.759447 z"
   id="path41"
   inkscape:connector-curvature="0" /></svg>