<?xml version="1.0" encoding="UTF-8" standalone="no"?>
<svg
   xmlns:dc="http://purl.org/dc/elements/1.1/"
   xmlns:cc="http://creativecommons.org/ns#"
   xmlns:rdf="http://www.w3.org/1999/02/22-rdf-syntax-ns#"
   xmlns:svg="http://www.w3.org/2000/svg"
   xmlns="http://www.w3.org/2000/svg"
   xmlns:sodipodi="http://sodipodi.sourceforge.net/DTD/sodipodi-0.dtd"
   xmlns:inkscape="http://www.inkscape.org/namespaces/inkscape"
   width="257.88898"
   height="364.01099"
   viewBox="0 0 257.88898 364.01099"
   version="1.1"
   preserveAspectRatio="xMidYMid"
   id="svg22"
   sodipodi:docname="logo_css3.svg"
   inkscape:version="0.92.5 (2060ec1f9f, 2020-04-08)">
  <metadata
     id="metadata28">
    <rdf:RDF>
      <cc:Work
         rdf:about="">
        <dc:format>image/svg+xml</dc:format>
        <dc:type
           rdf:resource="http://purl.org/dc/dcmitype/StillImage" />
        <dc:title></dc:title>
      </cc:Work>
    </rdf:RDF>
  </metadata>
  <defs
     id="defs26" />
  <sodipodi:namedview
     pagecolor="#ffffff"
     bordercolor="#666666"
     borderopacity="1"
     objecttolerance="10"
     gridtolerance="10"
     guidetolerance="10"
     inkscape:pageopacity="0"
     inkscape:pageshadow="2"
     inkscape:window-width="1366"
     inkscape:window-height="694"
     id="namedview24"
     showgrid="false"
     fit-margin-top="0"
     fit-margin-left="0"
     fit-margin-right="0"
     fit-margin-bottom="0"
     inkscape:zoom="0.65373961"
     inkscape:cx="127.55481"
     inkscape:cy="179.58792"
     inkscape:window-x="0"
     inkscape:window-y="0"
     inkscape:window-maximized="1"
     inkscape:current-layer="svg22" />
  <g
     id="g20"
     transform="matrix(1.0108948,0,0,1.0108948,-0.45003703,0)">
    <path
       d="M 127.84387,360.08791 23.661714,331.16624 0.44518681,70.765714 H 255.55481 L 232.31367,331.12545 Z"
       id="path2"
       inkscape:connector-curvature="0"
       style="fill:#264de4" />
    <path
       d="M 212.4167,314.54664 232.2778,92.057319 H 128 V 337.95024 Z"
       id="path4"
       inkscape:connector-curvature="0"
       style="fill:#2965f1" />
    <path
       d="m 53.668571,188.63613 2.862418,31.9367 H 128 v -31.9367 z"
       id="path6"
       inkscape:connector-curvature="0"
       style="fill:#ebebeb" />
    <path
       d="m 47.917011,123.99473 2.903209,31.9374 H 128 v -31.9374 z"
       id="path8"
       inkscape:connector-curvature="0"
       style="fill:#ebebeb" />
    <path
       d="m 128,271.58013 -0.13996,0.0373 -35.568524,-9.60422 -2.273758,-25.4713 H 57.957978 L 62.432352,286.68767 127.85301,304.8489 128,304.8081 v -33.22796 z"
       id="path10"
       inkscape:connector-curvature="0"
       style="fill:#ebebeb" />
    <path
       d="M 60.483516,0 H 99.164835 V 16.175824 H 76.659341 V 32.351648 H 99.164835 V 48.527473 H 60.483516 Z"
       id="path12"
       inkscape:connector-curvature="0"
       style="fill:#000000" />
    <path
       d="m 106.9011,0 h 38.68132 v 14.065934 h -22.5055 v 2.813187 h 22.5055 V 49.230769 H 106.9011 v -14.76923 h 22.50549 V 31.648352 H 106.9011 Z"
       id="path14"
       inkscape:connector-curvature="0"
       style="fill:#000000" />
    <path
       d="M 153.31868,0 H 192 v 14.065934 h -22.5055 v 2.813187 H 192 v 32.351648 h -38.68132 v -14.76923 h 22.5055 v -2.813187 h -22.5055 z"
       id="path16"
       inkscape:connector-curvature="0"
       style="fill:#000000" />
    <path
       d="m 202.12677,188.63613 5.76563,-64.6414 h -80.00282 v 31.9374 h 45.00255 l -2.90602,32.704 h -42.09653 v 31.9367 h 39.32695 l -3.70708,41.41996 -35.61987,9.61407 v 33.22655 l 65.47271,-18.14576 0.48035,-5.39569 7.50488,-84.07983 z"
       id="path18"
       inkscape:connector-curvature="0"
       style="fill:#ffffff" />
  </g>
</svg>
