<?xml version="1.0" encoding="UTF-8" standalone="no"?>
<!-- Created with Inkscape (http://www.inkscape.org/) -->

<svg
   xmlns:dc="http://purl.org/dc/elements/1.1/"
   xmlns:cc="http://creativecommons.org/ns#"
   xmlns:rdf="http://www.w3.org/1999/02/22-rdf-syntax-ns#"
   xmlns:svg="http://www.w3.org/2000/svg"
   xmlns="http://www.w3.org/2000/svg"
   xmlns:sodipodi="http://sodipodi.sourceforge.net/DTD/sodipodi-0.dtd"
   xmlns:inkscape="http://www.inkscape.org/namespaces/inkscape"
   width="8.5795555mm"
   height="9.8155842mm"
   viewBox="0 0 30.4 34.779628"
   id="svg2"
   version="1.1"
   inkscape:version="0.92.3 (2405546, 2018-03-11)"
   sodipodi:docname="nouveauLogo2AvecSousTitre.svg"
   inkscape:export-filename="/home/cedric/nouveauLogo2AvecSousTitre.svg.png"
   inkscape:export-xdpi="1184"
   inkscape:export-ydpi="1184">
  <defs
     id="defs4" />
  <sodipodi:namedview
     id="base"
     pagecolor="#ffffff"
     bordercolor="#666666"
     borderopacity="1.0"
     inkscape:pageopacity="0.0"
     inkscape:pageshadow="2"
     inkscape:zoom="22.157771"
     inkscape:cx="20.568902"
     inkscape:cy="2.5923509"
     inkscape:document-units="px"
     inkscape:current-layer="text3339"
     showgrid="false"
     fit-margin-top="0"
     fit-margin-left="0"
     fit-margin-right="0"
     fit-margin-bottom="0"
     inkscape:window-width="1301"
     inkscape:window-height="744"
     inkscape:window-x="65"
     inkscape:window-y="24"
     inkscape:window-maximized="1" />
  <metadata
     id="metadata7">
    <rdf:RDF>
      <cc:Work
         rdf:about="">
        <dc:format>image/svg+xml</dc:format>
        <dc:type
           rdf:resource="http://purl.org/dc/dcmitype/StillImage" />
        <dc:title />
      </cc:Work>
    </rdf:RDF>
  </metadata>
  <g
     inkscape:label="Calque 1"
     inkscape:groupmode="layer"
     id="layer1"
     transform="translate(-252.9421,-437.76486)">
    <text
       xml:space="preserve"
       style="font-style:normal;font-variant:normal;font-weight:normal;font-stretch:normal;line-height:0%;font-family:Dean;-inkscape-font-specification:Dean;letter-spacing:0px;word-spacing:0px;fill:#000000;fill-opacity:1;stroke:none;stroke-width:1px;stroke-linecap:butt;stroke-linejoin:miter;stroke-opacity:1"
       x="205.71429"
       y="466.64792"
       id="text3336"><tspan
         sodipodi:role="line"
         id="tspan3338"
         x="205.71429"
         y="466.64792"
         style="font-size:40px;line-height:1.25"> </tspan></text>
    <text
       xml:space="preserve"
       style="font-style:normal;font-variant:normal;font-weight:normal;font-stretch:normal;line-height:0%;font-family:Dean;-inkscape-font-specification:Dean;letter-spacing:0px;word-spacing:0px;fill:#000000;fill-opacity:1;stroke:none;stroke-width:1px;stroke-linecap:butt;stroke-linejoin:miter;stroke-opacity:1"
       x="188.57143"
       y="420.93362"
       id="text3340"><tspan
         sodipodi:role="line"
         id="tspan3342"
         x="188.57143"
         y="420.93362"
         style="font-size:40px;line-height:1.25"> </tspan></text>
    <path
       inkscape:connector-curvature="0"
       id="path3367"
       style="font-style:normal;font-variant:normal;font-weight:normal;font-stretch:normal;font-size:medium;line-height:125%;font-family:Dean;-inkscape-font-specification:Dean;letter-spacing:0px;word-spacing:0px;fill:#ffd700;fill-opacity:1;stroke:#000000;stroke-width:1px;stroke-linecap:butt;stroke-linejoin:miter;stroke-opacity:1"
       d="m 253.4421,463.02486 q 0,-0.76 0,-1.68 0.04,-0.92 0.16,-3.32 0.16,-2.4 0.4,-4.48 0.24,-2.12 0.76,-4.68 0.52,-2.6 1.2,-4.4 0.72,-1.8 1.88,-3.04 1.16,-1.24 2.6,-1.24 1.92,0 3.64,0.6 1.72,0.6 3,1.56 1.28,0.92 2.32,1.88 1.08,0.92 2.16,1.8 1.12,0.84 2.04,1.16 1,0.36 1.92,0.36 4.24,0 4.24,-8.48 v -0.4 l 1.16,-0.4 q 0.28,0 0.52,0.32 0.24,0.32 0.24,0.84 0,0.24 0.56,7 0.6,6.76 0.6,11.04 0,9.44 -2.68,9.44 -1.52,0 -6.84,-1.92 -5.28,-1.96 -7.08,-1.96 -0.28,-0.04 -0.72,-0.04 -1.72,0 -1.72,1.16 0,0.44 0.52,1.6 0.04,0.04 0.04,0.12 0,0.64 -5.08,0.64 -2.72,0 -4.28,-0.88 -1.56,-0.88 -1.56,-2.6 z" />
    <g
       style="font-style:normal;font-variant:normal;font-weight:normal;font-stretch:normal;font-size:2.5px;line-height:125%;font-family:'Liberation Sans';-inkscape-font-specification:'Liberation Sans, Normal';text-align:start;letter-spacing:0px;word-spacing:0px;writing-mode:lr-tb;text-anchor:start;fill:#000000;fill-opacity:1;stroke:#000000;stroke-width:0.2;stroke-linecap:butt;stroke-linejoin:miter;stroke-miterlimit:4;stroke-dasharray:none;stroke-opacity:1"
       id="text3339">
      <path
         d="m 257.3694,471.40689 -1.49902,-2.64892 q 0.0122,0.10742 0.022,0.21484 0.01,0.0928 0.0147,0.20019 0.007,0.10743 0.007,0.20508 l 0,2.02881 -0.63965,0 0,-3.43994 0.82276,0 1.52099,2.6709 q -0.0122,-0.10254 -0.022,-0.21485 -0.01,-0.0952 -0.0171,-0.21484 -0.005,-0.11963 -0.005,-0.2417 l 0,-1.99951 0.63965,0 0,3.43994 -0.84473,0 z"
         style="font-weight:bold;font-size:5px;fill:#ffff00;stroke:#000000;stroke-width:0.2;stroke-miterlimit:4;stroke-dasharray:none;stroke-opacity:1"
         id="path4186"
         inkscape:connector-curvature="0" />
      <path
         d="m 259.51295,471.45572 q -0.19042,0 -0.34179,-0.0513 -0.14893,-0.0537 -0.25391,-0.15381 -0.10498,-0.10254 -0.16113,-0.25146 -0.0562,-0.14893 -0.0562,-0.33936 0,-0.23437 0.0806,-0.39307 0.083,-0.16113 0.22461,-0.25878 0.1416,-0.1001 0.33203,-0.14405 0.19043,-0.0464 0.40528,-0.0488 l 0.56884,-0.01 0,-0.13428 q 0,-0.14404 -0.0268,-0.23926 -0.0244,-0.0976 -0.0732,-0.15869 -0.0488,-0.061 -0.12207,-0.0854 -0.0708,-0.0269 -0.16358,-0.0269 -0.0854,0 -0.15381,0.0171 -0.0659,0.0171 -0.11474,0.061 -0.0488,0.0415 -0.0806,0.11475 -0.0293,0.0708 -0.0415,0.18066 l -0.71533,-0.0342 q 0.0293,-0.17334 0.10742,-0.31494 0.0781,-0.14404 0.21484,-0.24902 0.13916,-0.10498 0.33936,-0.16114 0.20263,-0.0586 0.47363,-0.0586 0.24658,0 0.43945,0.061 0.19287,0.061 0.32715,0.1831 0.13428,0.11963 0.20508,0.29541 0.0708,0.17578 0.0708,0.40772 l 0,0.96191 q 0,0.0928 0.007,0.16602 0.01,0.0732 0.0317,0.12451 0.0244,0.0488 0.0659,0.0757 0.0439,0.0244 0.1123,0.0244 0.0781,0 0.15137,-0.0147 l 0,0.37109 q -0.061,0.0147 -0.10986,0.0269 -0.0488,0.0122 -0.0977,0.0195 -0.0488,0.007 -0.10498,0.0122 -0.0537,0.005 -0.12695,0.005 -0.25879,0 -0.3833,-0.12696 -0.12207,-0.12695 -0.14649,-0.37353 l -0.0146,0 q -0.13672,0.24658 -0.35157,0.3833 -0.2124,0.13672 -0.51758,0.13672 z m 0.79834,-1.27197 -0.35156,0.005 q -0.10986,0.005 -0.20996,0.0195 -0.0977,0.0122 -0.17334,0.0562 -0.0732,0.0415 -0.11719,0.12207 -0.0439,0.0806 -0.0439,0.21973 0,0.18799 0.0854,0.28076 0.0879,0.0903 0.23193,0.0903 0.13184,0 0.23926,-0.0562 0.10742,-0.0562 0.18066,-0.14648 0.0757,-0.0928 0.11719,-0.21241 0.0415,-0.11962 0.0415,-0.24414 l 0,-0.13427 z"
         style="font-weight:bold;font-size:5px;fill:#ffff00;stroke:#000000;stroke-width:0.2;stroke-miterlimit:4;stroke-dasharray:none;stroke-opacity:1"
         id="path4188"
         inkscape:connector-curvature="0" />
      <path
         d="m 262.76247,470.81851 0.61035,-2.05322 0.71777,0 -1.04492,2.78076 q -0.19775,0.48096 -0.41016,0.68115 -0.23193,0.21729 -0.60791,0.21729 -0.24658,0 -0.43213,-0.0317 l 0,-0.48828 q 0.1294,0.0195 0.23194,0.0195 0.10498,0 0.1831,-0.022 0.0781,-0.022 0.1416,-0.0732 0.12452,-0.10254 0.22461,-0.35157 l 0.0439,-0.11718 -1.04492,-2.61475 0.7251,0 0.66162,2.05322 z"
         style="font-weight:bold;font-size:5px;fill:#ffff00;stroke:#000000;stroke-width:0.2;stroke-miterlimit:4;stroke-dasharray:none;stroke-opacity:1"
         id="path4190"
         inkscape:connector-curvature="0" />
      <path
         d="m 265.14528,471.45084 q -0.30274,0 -0.46631,-0.16358 -0.16357,-0.16601 -0.16357,-0.50049 l 0,-1.55761 -0.33448,0 0,-0.46387 0.36866,0 0.21484,-0.62012 0.42969,0 0,0.62012 0.50049,0 0,0.46387 -0.50049,0 0,1.37207 q 0,0.19287 0.0732,0.28564 0.0732,0.0903 0.22705,0.0903 0.0635,0 0.11475,-0.01 0.0513,-0.01 0.11474,-0.0244 l 0,0.42481 q -0.12695,0.0415 -0.26855,0.061 -0.1416,0.022 -0.31006,0.022 z"
         style="font-weight:bold;font-size:5px;fill:#ffff00;stroke:#000000;stroke-width:0.2;stroke-miterlimit:4;stroke-dasharray:none;stroke-opacity:1"
         id="path4192"
         inkscape:connector-curvature="0" />
      <path
         d="m 266.8152,469.29263 q 0.13916,-0.30273 0.34912,-0.43945 0.20996,-0.13672 0.50049,-0.13672 0.23926,0 0.40283,0.0781 0.16602,0.0781 0.26856,0.21484 0.10498,0.13672 0.15136,0.32227 0.0464,0.18554 0.0464,0.40039 l 0,1.6748 -0.68359,0 0,-1.47949 q 0,-0.15381 -0.0244,-0.28076 -0.0244,-0.1294 -0.0806,-0.21973 -0.0562,-0.0928 -0.14649,-0.14404 -0.0903,-0.0513 -0.21972,-0.0513 -0.12452,0 -0.22706,0.0562 -0.10009,0.0537 -0.17333,0.15625 -0.0732,0.1001 -0.11475,0.2417 -0.0391,0.13916 -0.0391,0.30762 l 0,1.41357 -0.68604,0 0,-3.62305 0.68604,0 0,0.98877 q 0,0.0781 -0.002,0.15869 -0.002,0.0781 -0.007,0.14893 -0.002,0.0684 -0.005,0.12451 -0.002,0.0562 -0.005,0.0879 l 0.01,0 z"
         style="font-weight:bold;font-size:5px;fill:#ffff00;stroke:#000000;stroke-width:0.2;stroke-miterlimit:4;stroke-dasharray:none;stroke-opacity:1"
         id="path4194"
         inkscape:connector-curvature="0" />
      <path
         d="m 270.27711,471.45572 q -0.28564,0 -0.51513,-0.083 -0.22705,-0.0854 -0.38819,-0.25635 -0.16113,-0.17334 -0.24658,-0.43213 -0.0854,-0.26123 -0.0854,-0.61035 0,-0.37841 0.1001,-0.6372 0.10254,-0.25879 0.27344,-0.41748 0.17334,-0.16114 0.39795,-0.23194 0.22461,-0.0708 0.47363,-0.0708 0.3125,0 0.53223,0.10986 0.22217,0.10743 0.36377,0.30274 0.1416,0.19531 0.20752,0.46875 0.0659,0.27099 0.0659,0.60058 l 0,0.0195 -1.69433,0 q 0,0.16601 0.0293,0.31005 0.0293,0.14161 0.0952,0.24659 0.0659,0.10254 0.1709,0.16357 0.10498,0.0586 0.2539,0.0586 0.18067,0 0.29541,-0.0757 0.11475,-0.0781 0.16358,-0.23926 l 0.64697,0.0562 q -0.0439,0.1123 -0.12451,0.23925 -0.0781,0.12696 -0.20996,0.23438 -0.13184,0.10498 -0.32959,0.17578 -0.19531,0.0684 -0.47608,0.0684 z m 0,-2.30713 q -0.10498,0 -0.19775,0.0366 -0.0903,0.0342 -0.15869,0.11231 -0.0659,0.0757 -0.10742,0.19775 -0.0415,0.12207 -0.0464,0.29297 l 1.02539,0 q -0.0195,-0.31983 -0.15381,-0.47852 -0.13427,-0.16113 -0.36133,-0.16113 z"
         style="font-weight:bold;font-size:5px;fill:#ffff00;stroke:#000000;stroke-width:0.2;stroke-miterlimit:4;stroke-dasharray:none;stroke-opacity:1"
         id="path4196"
         inkscape:connector-curvature="0" />
      <path
         d="m 273.06032,471.45572 q -0.28565,0 -0.51514,-0.083 -0.22705,-0.0854 -0.38818,-0.25635 -0.16114,-0.17334 -0.24658,-0.43213 -0.0854,-0.26123 -0.0854,-0.61035 0,-0.37841 0.10009,-0.6372 0.10254,-0.25879 0.27344,-0.41748 0.17334,-0.16114 0.39795,-0.23194 0.22461,-0.0708 0.47363,-0.0708 0.3125,0 0.53223,0.10986 0.22217,0.10743 0.36377,0.30274 0.1416,0.19531 0.20752,0.46875 0.0659,0.27099 0.0659,0.60058 l 0,0.0195 -1.69434,0 q 0,0.16601 0.0293,0.31005 0.0293,0.14161 0.0952,0.24659 0.0659,0.10254 0.1709,0.16357 0.10498,0.0586 0.25391,0.0586 0.18066,0 0.29541,-0.0757 0.11474,-0.0781 0.16357,-0.23926 l 0.64697,0.0562 q -0.0439,0.1123 -0.12451,0.23925 -0.0781,0.12696 -0.20996,0.23438 -0.13183,0.10498 -0.32959,0.17578 -0.19531,0.0684 -0.47607,0.0684 z m 0,-2.30713 q -0.10498,0 -0.19776,0.0366 -0.0903,0.0342 -0.15869,0.11231 -0.0659,0.0757 -0.10742,0.19775 -0.0415,0.12207 -0.0464,0.29297 l 1.02539,0 q -0.0195,-0.31983 -0.1538,-0.47852 -0.13428,-0.16113 -0.36133,-0.16113 z"
         style="font-weight:bold;font-size:5px;fill:#ffff00;stroke:#000000;stroke-width:0.2;stroke-miterlimit:4;stroke-dasharray:none;stroke-opacity:1"
         id="path4198"
         inkscape:connector-curvature="0" />
      <path
         d="m 275.43825,471.45084 q -0.30274,0 -0.46631,-0.16358 -0.16358,-0.16601 -0.16358,-0.50049 l 0,-1.55761 -0.33447,0 0,-0.46387 0.36865,0 0.21485,-0.62012 0.42969,0 0,0.62012 0.50048,0 0,0.46387 -0.50048,0 0,1.37207 q 0,0.19287 0.0732,0.28564 0.0732,0.0903 0.22705,0.0903 0.0635,0 0.11474,-0.01 0.0513,-0.01 0.11475,-0.0244 l 0,0.42481 q -0.12695,0.0415 -0.26855,0.061 -0.14161,0.022 -0.31006,0.022 z"
         style="font-weight:bold;font-size:5px;fill:#ffff00;stroke:#000000;stroke-width:0.2;stroke-miterlimit:4;stroke-dasharray:none;stroke-opacity:1"
         id="path4200"
         inkscape:connector-curvature="0" />
      <path
         d="m 276.42213,471.40689 0,-0.74463 0.70557,0 0,0.74463 -0.70557,0 z"
         style="font-weight:bold;font-size:5px;fill:#ffff00;stroke:#000000;stroke-width:0.2;stroke-miterlimit:4;stroke-dasharray:none;stroke-opacity:1"
         id="path4202"
         inkscape:connector-curvature="0" />
      <path
         d="m 278.62428,469.22916 0,2.17773 -0.68359,0 0,-2.17773 -0.38574,0 0,-0.46387 0.38574,0 0,-0.27588 q 0,-0.15137 0.0366,-0.27832 0.0366,-0.12939 0.12451,-0.22461 0.0879,-0.0952 0.23682,-0.14893 0.14892,-0.0537 0.37109,-0.0537 0.11719,0 0.22949,0.0122 0.11475,0.0122 0.20508,0.0269 l 0,0.44189 q -0.0439,-0.01 -0.1001,-0.0146 -0.0537,-0.007 -0.10009,-0.007 -0.0952,0 -0.15869,0.0195 -0.061,0.0195 -0.0977,0.0586 -0.0342,0.0391 -0.0488,0.1001 -0.0147,0.0586 -0.0147,0.13672 l 0,0.20752 0.52002,0 0,0.46387 -0.52002,0 z"
         style="font-weight:bold;font-size:5px;fill:#ffff00;stroke:#000000;stroke-width:0.2;stroke-miterlimit:4;stroke-dasharray:none;stroke-opacity:1"
         id="path4204"
         inkscape:connector-curvature="0" />
      <path
         d="m 279.48854,471.40689 0,-2.02148 q 0,-0.0854 -0.002,-0.18067 0,-0.0952 -0.005,-0.18066 -0.002,-0.0879 -0.005,-0.15625 -0.002,-0.0708 -0.007,-0.10254 l 0.6543,0 q 0.005,0.0293 0.01,0.10254 0.005,0.0708 0.01,0.15625 0.005,0.0854 0.007,0.1709 0.005,0.083 0.005,0.13427 l 0.01,0 q 0.0513,-0.14404 0.10254,-0.25634 0.0513,-0.11475 0.11963,-0.19287 0.0708,-0.0806 0.16846,-0.12207 0.0977,-0.0439 0.24169,-0.0439 0.061,0 0.11963,0.0122 0.061,0.01 0.0928,0.0244 l 0,0.57373 q -0.0659,-0.0146 -0.13428,-0.0244 -0.0659,-0.0122 -0.15869,-0.0122 -0.25635,0 -0.40039,0.20752 -0.1416,0.20752 -0.1416,0.61523 l 0,1.29639 -0.68604,0 z"
         style="font-weight:bold;font-size:5px;fill:#ffff00;stroke:#000000;stroke-width:0.2;stroke-miterlimit:4;stroke-dasharray:none;stroke-opacity:1"
         id="path4206"
         inkscape:connector-curvature="0" />
    </g>
  </g>
</svg>
