<?xml version="1.0" encoding="UTF-8" standalone="no"?>
<svg
   xmlns:dc="http://purl.org/dc/elements/1.1/"
   xmlns:cc="http://creativecommons.org/ns#"
   xmlns:rdf="http://www.w3.org/1999/02/22-rdf-syntax-ns#"
   xmlns:svg="http://www.w3.org/2000/svg"
   xmlns="http://www.w3.org/2000/svg"
   xmlns:sodipodi="http://sodipodi.sourceforge.net/DTD/sodipodi-0.dtd"
   xmlns:inkscape="http://www.inkscape.org/namespaces/inkscape"
   width="320"
   height="320"
   viewBox="0 0 256 254.47218"
   version="1.1"
   id="svg14"
   sodipodi:docname="logo_mysql.svg"
   inkscape:version="0.92.5 (2060ec1f9f, 2020-04-08)">
  <metadata
     id="metadata20">
    <rdf:RDF>
      <cc:Work
         rdf:about="">
        <dc:format>image/svg+xml</dc:format>
        <dc:type
           rdf:resource="http://purl.org/dc/dcmitype/StillImage" />
        <dc:title></dc:title>
      </cc:Work>
    </rdf:RDF>
  </metadata>
  <defs
     id="defs18" />
  <sodipodi:namedview
     pagecolor="#ffffff"
     bordercolor="#666666"
     borderopacity="1"
     objecttolerance="10"
     gridtolerance="10"
     guidetolerance="10"
     inkscape:pageopacity="0"
     inkscape:pageshadow="2"
     inkscape:window-width="1366"
     inkscape:window-height="694"
     id="namedview16"
     showgrid="false"
     inkscape:zoom="1.0371094"
     inkscape:cx="256"
     inkscape:cy="256"
     inkscape:window-x="0"
     inkscape:window-y="0"
     inkscape:window-maximized="1"
     inkscape:current-layer="svg14" />
  <g
     id="g28"
     transform="translate(25.6005,-32.047973)">
    <path
       style="fill:#00618a"
       inkscape:connector-curvature="0"
       id="path2"
       d="M 0,202.734 H 6.747 V 176.1 l 10.445,23.227 c 1.232,2.8 2.92,3.806 6.228,3.806 3.308,0 4.93,-0.995 6.164,-3.806 L 40.03,176.1 v 26.644 h 6.748 v -26.6 c 0,-2.595 -1.04,-3.85 -3.18,-4.498 -5.125,-1.6 -8.564,-0.216 -10.12,3.244 L 23.228,197.813 13.3,174.88 C 11.808,171.42 8.305,170.036 3.18,171.636 1.038,172.285 0,173.54 0,176.134 Z m 52.386,-21.686 h 6.745 v 14.68 c -0.063,0.798 0.256,2.67 3.952,2.727 1.886,0.03 14.554,0 14.672,0 v -17.48 h 6.76 c 0.03,0 -0.007,23.834 -0.006,23.936 0.037,5.878 -7.294,7.155 -10.672,7.254 H 52.533 v -4.54 l 21.342,-0.001 c 4.342,-0.46 3.83,-2.617 3.83,-3.344 v -1.77 h -14.34 c -6.672,-0.06 -10.92,-2.973 -10.973,-6.323 -0.005,-0.3 0.144,-14.995 -0.004,-15.14 z" />
    <path
       style="fill:#e48e00"
       inkscape:connector-curvature="0"
       id="path4"
       d="m 89.716,202.734 h 19.398 c 2.27,0 4.477,-0.475 6.23,-1.298 2.92,-1.34 4.347,-3.157 4.347,-5.536 v -4.93 c 0,-1.947 -1.622,-3.763 -4.8,-4.974 -1.687,-0.65 -3.763,-0.995 -5.774,-0.995 h -8.175 c -2.724,0 -4.022,-0.822 -4.346,-2.638 -0.065,-0.216 -0.065,-0.4 -0.065,-0.606 v -3.07 c 0,-0.173 0,-0.347 0.065,-0.563 0.324,-1.384 1.038,-1.774 3.438,-2 0.195,0 0.454,-0.044 0.65,-0.044 h 19.268 v -4.497 h -18.944 c -2.725,0 -4.152,0.173 -5.45,0.562 -4.026,1.255 -5.778,3.255 -5.778,6.715 v 3.936 c 0,3.028 3.44,5.623 9.212,6.228 0.65,0.043 1.298,0.086 1.946,0.086 h 7.007 c 0.26,0 0.52,0 0.714,0.044 2.14,0.173 3.05,0.562 3.698,1.34 0.4,0.4 0.52,0.78 0.52,1.2 v 3.936 c 0,0.476 -0.324,1.082 -0.973,1.6 -0.584,0.52 -1.557,0.865 -2.855,0.952 -0.26,0 -0.454,0.043 -0.713,0.043 h -18.62 v 4.498 z m 72.064,-7.828 c 0,4.628 3.438,7.223 10.38,7.742 a 29.45,29.45 0 0 0 1.946,0.086 h 17.582 v -4.498 h -17.712 c -3.957,0 -5.45,-0.995 -5.45,-3.374 v -23.27 h -6.747 v 23.312 z m -37.785,0.234 v -16.035 c 0,-4.074 2.86,-6.545 8.516,-7.325 a 12.94,12.94 0 0 1 1.821,-0.13 h 12.807 a 13.87,13.87 0 0 1 1.886,0.13 c 5.656,0.78 8.516,3.25 8.516,7.325 v 16.035 c 0,3.305 -1.215,5.074 -4.015,6.227 l 6.646,6 h -7.834 l -5.377,-4.854 -5.413,0.343 h -7.216 c -1.235,0 -2.535,-0.174 -3.966,-0.564 -4.3,-1.17 -6.37,-3.424 -6.37,-7.152 z m 7.283,-0.4 c 0,0.217 0.065,0.433 0.13,0.694 0.4,1.864 2.145,2.904 4.8,2.904 h 6.13 l -5.63,-5.083 h 7.834 l 4.9,4.433 c 0.905,-0.482 1.5,-1.22 1.7,-2.167 0.065,-0.216 0.065,-0.433 0.065,-0.65 v -15.375 c 0,-0.173 0,-0.4 -0.065,-0.607 -0.4,-1.733 -2.146,-2.73 -4.746,-2.73 H 136.22 c -3,0 -4.94,1.3 -4.94,3.337 v 15.256 z" />
    <g
       transform="translate(0,106.4)"
       style="fill:#00618a"
       id="g10">
      <path
         inkscape:connector-curvature="0"
         id="path6"
         d="m 197.624,57.73 c -4.147,-0.112 -7.316,0.273 -10.024,1.415 -0.77,0.325 -1.997,0.333 -2.123,1.298 0.423,0.443 0.49,1.105 0.825,1.65 0.647,1.047 1.74,2.45 2.713,3.184 1.064,0.803 2.16,1.663 3.303,2.36 2.03,1.238 4.296,1.945 6.25,3.184 1.152,0.73 2.296,1.65 3.42,2.476 0.555,0.408 0.93,1.042 1.65,1.297 v -0.118 c -0.38,-0.483 -0.477,-1.147 -0.825,-1.65 l -1.533,-1.533 c -1.5,-2 -3.402,-3.737 -5.425,-5.19 -1.613,-1.158 -5.224,-2.722 -5.897,-4.6 l -0.118,-0.118 c 1.144,-0.13 2.483,-0.543 3.54,-0.825 1.773,-0.475 3.358,-0.353 5.19,-0.825 l 2.477,-0.708 v -0.472 c -0.926,-0.95 -1.586,-2.207 -2.595,-3.066 -2.64,-2.25 -5.523,-4.495 -8.49,-6.37 -1.646,-1.04 -3.68,-1.714 -5.425,-2.595 -0.587,-0.296 -1.618,-0.45 -2.005,-0.944 -0.916,-1.168 -1.415,-2.65 -2.122,-4 -1.48,-2.85 -2.934,-5.964 -4.246,-8.963 -0.895,-2.045 -1.48,-4.062 -2.594,-5.897 -5.355,-8.804 -11.12,-14.118 -20.048,-19.34 -1.9,-1.11 -4.187,-1.55 -6.605,-2.123 l -3.892,-0.236 c -0.792,-0.33 -1.616,-1.3 -2.36,-1.77 -2.958,-1.87 -10.545,-5.933 -12.736,-0.6 -1.383,3.373 2.067,6.664 3.302,8.374 0.866,1.2 1.976,2.543 2.594,3.892 0.407,0.886 0.478,1.775 0.826,2.713 0.857,2.3 1.603,4.823 2.712,6.958 0.56,1.08 1.178,2.218 1.887,3.184 0.435,0.593 1.18,0.854 1.297,1.77 -0.728,1.02 -0.77,2.6 -1.18,3.892 -1.843,5.812 -1.148,13.035 1.533,17.337 0.823,1.32 2.76,4.152 5.425,3.066 2.33,-0.95 1.8,-3.89 2.477,-6.486 0.15,-0.59 0.058,-1.02 0.354,-1.415 v 0.118 l 2.123,4.245 c 1.57,2.53 4.36,5.175 6.722,6.96 1.225,0.925 2.2,2.525 3.774,3.066 v -0.118 h -0.118 c -0.307,-0.48 -0.787,-0.677 -1.18,-1.06 -0.923,-0.905 -1.95,-2.03 -2.713,-3.066 -2.15,-2.918 -4.048,-6.11 -5.778,-9.435 -0.826,-1.587 -1.545,-3.338 -2.24,-4.953 -0.268,-0.623 -0.265,-1.564 -0.825,-1.887 -0.763,1.184 -1.887,2.14 -2.477,3.538 -0.944,2.234 -1.066,4.958 -1.415,7.784 -0.207,0.074 -0.115,0.023 -0.236,0.118 -1.642,-0.396 -2.22,-2.087 -2.83,-3.538 -1.544,-3.67 -1.83,-9.576 -0.472,-13.798 0.35,-1.092 1.94,-4.534 1.297,-5.543 -0.307,-1.007 -1.32,-1.6 -1.887,-2.36 -0.7,-0.95 -1.402,-2.204 -1.887,-3.302 -1.264,-2.86 -1.854,-6.07 -3.184,-8.963 -0.636,-1.382 -1.71,-2.78 -2.594,-4 -0.978,-1.36 -2.073,-2.364 -2.83,-4 -0.27,-0.585 -0.636,-1.52 -0.236,-2.123 a 0.93,0.93 0 0 1 0.708,-0.708 c 0.684,-0.527 2.59,0.175 3.302,0.472 1.89,0.786 3.47,1.534 5.072,2.595 0.77,0.5 1.547,1.496 2.476,1.77 h 1.06 c 1.66,0.382 3.52,0.12 5.07,0.59 2.742,0.833 5.198,2.13 7.43,3.538 6.798,4.292 12.355,10.402 16.157,17.7 0.612,1.173 0.876,2.294 1.415,3.538 1.087,2.5 2.456,5.093 3.538,7.547 1.08,2.45 2.13,4.92 3.656,6.958 0.802,1.07 3.9,1.646 5.307,2.24 0.987,0.417 2.603,0.852 3.538,1.415 1.785,1.077 3.515,2.36 5.19,3.54 0.837,0.59 3.41,1.883 3.538,2.948 z" />
      <path
         style="fill-rule:evenodd"
         inkscape:connector-curvature="0"
         id="path8"
         d="m 144.91,12.798 c -0.865,-0.016 -1.476,0.094 -2.123,0.236 v 0.118 h 0.118 c 0.412,0.848 1.14,1.393 1.65,2.123 l 1.18,2.476 0.118,-0.118 c 0.73,-0.515 1.065,-1.338 1.06,-2.595 -0.293,-0.308 -0.336,-0.694 -0.59,-1.062 -0.337,-0.49 -1,-0.768 -1.415,-1.18 z" />
    </g>
    <path
       style="fill:#e48e00;fill-rule:evenodd"
       inkscape:connector-curvature="0"
       id="path12"
       d="m 194.855,198.108 c 0,2.97 2.347,4.972 4.972,4.972 2.625,0 4.972,-2.002 4.972,-4.972 0,-2.97 -2.347,-4.972 -4.972,-4.972 -2.625,0 -4.972,2.002 -4.972,4.972 z m 8.83,0 c 0,2.254 -1.723,3.938 -3.86,3.938 -2.16,0 -3.86,-1.684 -3.86,-3.938 0,-2.254 1.698,-3.938 3.86,-3.938 2.135,0 3.86,1.684 3.86,3.938 z m -2.52,2.838 h 1.113 l -1.63,-2.492 c 0.875,-0.093 1.537,-0.518 1.537,-1.552 0,-1.154 -0.73,-1.63 -2.134,-1.63 h -2.215 v 5.675 h 0.955 v -2.453 h 0.888 l 1.485,2.453 z m -2.374,-3.25 v -1.63 h 1.1 c 0.57,0 1.26,0.106 1.26,0.77 0,0.795 -0.623,0.862 -1.34,0.862 h -1.02 z" />
  </g>
</svg>
