<?xml version="1.0" encoding="UTF-8" standalone="no"?>
<svg
   width="1024"
   height="1024"
   version="1.1"
   id="svg33"
   sodipodi:docname="logo_html5.svg"
   inkscape:version="1.1.2 (0a00cf5339, 2022-02-04)"
   xmlns:inkscape="http://www.inkscape.org/namespaces/inkscape"
   xmlns:sodipodi="http://sodipodi.sourceforge.net/DTD/sodipodi-0.dtd"
   xmlns="http://www.w3.org/2000/svg"
   xmlns:svg="http://www.w3.org/2000/svg"
   xmlns:rdf="http://www.w3.org/1999/02/22-rdf-syntax-ns#"
   xmlns:cc="http://creativecommons.org/ns#"
   xmlns:dc="http://purl.org/dc/elements/1.1/">
  <metadata
     id="metadata37">
    <rdf:RDF>
      <cc:Work
         rdf:about="">
        <dc:format>image/svg+xml</dc:format>
        <dc:type
           rdf:resource="http://purl.org/dc/dcmitype/StillImage" />
      </cc:Work>
    </rdf:RDF>
  </metadata>
  <sodipodi:namedview
     pagecolor="#ffffff"
     bordercolor="#666666"
     borderopacity="1"
     objecttolerance="10"
     gridtolerance="10"
     guidetolerance="10"
     inkscape:pageopacity="0"
     inkscape:pageshadow="2"
     inkscape:window-width="1366"
     inkscape:window-height="693"
     id="namedview35"
     showgrid="false"
     inkscape:zoom="0.40136719"
     inkscape:cx="512"
     inkscape:cy="512"
     inkscape:window-x="0"
     inkscape:window-y="0"
     inkscape:window-maximized="1"
     inkscape:current-layer="svg33"
     inkscape:pagecheckerboard="0" />
  <defs
     id="defs27">
    <linearGradient
       id="bs-logo-a"
       x1="76.079002"
       x2="523.47998"
       y1="10.798"
       y2="365.94501"
       gradientUnits="userSpaceOnUse">
      <stop
         stop-color="#9013fe"
         id="stop2" />
      <stop
         offset="1"
         stop-color="#6610f2"
         id="stop4" />
    </linearGradient>
    <linearGradient
       id="bs-logo-b"
       x1="193.508"
       x2="293.51401"
       y1="109.74"
       y2="278.87201"
       gradientUnits="userSpaceOnUse">
      <stop
         stop-color="#fff"
         id="stop7" />
      <stop
         offset="1"
         stop-color="#f1e5fc"
         id="stop9" />
    </linearGradient>
    <filter
       id="bs-logo-c"
       width="197"
       height="249"
       x="161.901"
       y="83.457001"
       filterUnits="userSpaceOnUse"
       style="color-interpolation-filters:sRGB">
      <feFlood
         flood-opacity="0"
         result="BackgroundImageFix"
         id="feFlood12" />
      <feColorMatrix
         in="SourceAlpha"
         values="0 0 0 0 0 0 0 0 0 0 0 0 0 0 0 0 0 0 127 0"
         id="feColorMatrix14" />
      <feOffset
         dy="4"
         id="feOffset16" />
      <feGaussianBlur
         stdDeviation="8"
         id="feGaussianBlur18" />
      <feColorMatrix
         values="0 0 0 0 0 0 0 0 0 0 0 0 0 0 0 0 0 0 0.15 0"
         id="feColorMatrix20" />
      <feBlend
         in2="BackgroundImageFix"
         result="effect1_dropShadow"
         id="feBlend22"
         mode="normal" />
      <feBlend
         in="SourceGraphic"
         in2="effect1_dropShadow"
         result="shape"
         id="feBlend24"
         mode="normal" />
    </filter>
  </defs>
  <g
     id="g881"
     transform="translate(330.1545,256)">
    <g
       id="g14"
       transform="translate(-74.012)">
      <g
         id="g12">
        <g
           id="g10">
          <path
             d="m 108.382,0 h 23.077 v 22.8 h 21.11 V 0 h 23.078 V 69.044 H 152.57 v -23.12 h -21.11 v 23.12 h -23.077 z"
             id="path2"
             inkscape:connector-curvature="0" />
          <path
             d="M 205.994,22.896 H 185.678 V 0 h 63.72 v 22.896 h -20.325 v 46.148 h -23.078 z"
             id="path4"
             inkscape:connector-curvature="0" />
          <path
             d="m 259.511,0 h 24.063 L 298.376,24.26 313.163,0 h 24.072 V 69.044 H 314.253 V 34.822 l -15.877,24.549 h -0.397 L 282.091,34.822 v 34.222 h -22.58 z"
             id="path6"
             inkscape:connector-curvature="0" />
          <path
             d="m 348.72,0 h 23.084 v 46.222 h 32.453 V 69.044 H 348.72 Z"
             id="path8"
             inkscape:connector-curvature="0" />
        </g>
      </g>
    </g>
    <g
       id="Guides_to_delete"
       transform="translate(-74.012)">
      <g
         id="g28">
        <polygon
           points="437.703,99.297 404.549,470.755 255.769,512 107.125,470.727 74.012,99.297 "
           id="polygon16"
           style="fill:#e34e26" />
        <polygon
           points="255.857,480.449 376.164,447.101 404.51,129.657 255.857,129.657 "
           id="polygon18"
           style="fill:#ef662a" />
        <polygon
           points="141.761,175.217 154.041,312.978 311.936,312.978 306.637,372.066 255.799,385.811 205.057,372.085 201.664,334.146 155.937,334.146 162.476,407.282 255.787,433.199 349.219,407.282 361.744,267.429 195.706,267.429 191.538,220.777 365.732,220.777 365.873,220.777 369.953,175.217 "
           id="polygon20"
           style="fill:#ffffff" />
        <g
           id="g26">
          <polygon
             points="141.761,175.217 154.041,312.978 255.857,312.978 255.857,267.429 195.706,267.429 191.538,220.777 255.857,220.777 255.857,175.217 "
             id="polygon22"
             style="fill:#ebebeb" />
          <polygon
             points="255.799,385.811 205.057,372.085 201.664,334.146 155.937,334.146 162.476,407.282 255.787,433.199 255.857,433.179 255.857,385.791 "
             id="polygon24"
             style="fill:#ebebeb" />
        </g>
      </g>
    </g>
    <g
       id="g855"
       transform="translate(-74.012)">
      <g
         id="g853">
        <g
           id="g851">
          <path
             id="path843"
             d="m 108.382,0 h 23.077 v 22.8 h 21.11 V 0 h 23.078 V 69.044 H 152.57 v -23.12 h -21.11 v 23.12 h -23.077 z"
             inkscape:connector-curvature="0" />
          <path
             id="path845"
             d="M 205.994,22.896 H 185.678 V 0 h 63.72 v 22.896 h -20.325 v 46.148 h -23.078 z"
             inkscape:connector-curvature="0" />
          <path
             id="path847"
             d="m 259.511,0 h 24.063 L 298.376,24.26 313.163,0 h 24.072 V 69.044 H 314.253 V 34.822 l -15.877,24.549 h -0.397 L 282.091,34.822 v 34.222 h -22.58 z"
             inkscape:connector-curvature="0" />
          <path
             id="path849"
             d="m 348.72,0 h 23.084 v 46.222 h 32.453 V 69.044 H 348.72 Z"
             inkscape:connector-curvature="0" />
        </g>
      </g>
    </g>
    <g
       id="g871"
       transform="translate(-74.012)">
      <g
         id="g869">
        <polygon
           id="polygon857"
           points="437.703,99.297 404.549,470.755 255.769,512 107.125,470.727 74.012,99.297 "
           style="fill:#e34e26" />
        <polygon
           id="polygon859"
           points="255.857,480.449 376.164,447.101 404.51,129.657 255.857,129.657 "
           style="fill:#ef662a" />
        <polygon
           id="polygon861"
           points="141.761,175.217 154.041,312.978 311.936,312.978 306.637,372.066 255.799,385.811 205.057,372.085 201.664,334.146 155.937,334.146 162.476,407.282 255.787,433.199 349.219,407.282 361.744,267.429 195.706,267.429 191.538,220.777 365.732,220.777 365.873,220.777 369.953,175.217 "
           style="fill:#ffffff" />
        <g
           id="g867">
          <polygon
             id="polygon863"
             points="141.761,175.217 154.041,312.978 255.857,312.978 255.857,267.429 195.706,267.429 191.538,220.777 255.857,220.777 255.857,175.217 "
             style="fill:#ebebeb" />
          <polygon
             id="polygon865"
             points="255.799,385.811 205.057,372.085 201.664,334.146 155.937,334.146 162.476,407.282 255.787,433.199 255.857,433.179 255.857,385.791 "
             style="fill:#ebebeb" />
        </g>
      </g>
    </g>
  </g>
</svg>
