<?xml version="1.0" encoding="UTF-8" standalone="no"?>
<svg
   width="1024"
   height="1024"
   version="1.1"
   id="svg33"
   sodipodi:docname="nouveauLogo2AvecSousTitre.svg"
   inkscape:version="1.1.2 (0a00cf5339, 2022-02-04)"
   xmlns:inkscape="http://www.inkscape.org/namespaces/inkscape"
   xmlns:sodipodi="http://sodipodi.sourceforge.net/DTD/sodipodi-0.dtd"
   xmlns="http://www.w3.org/2000/svg"
   xmlns:svg="http://www.w3.org/2000/svg"
   xmlns:rdf="http://www.w3.org/1999/02/22-rdf-syntax-ns#"
   xmlns:cc="http://creativecommons.org/ns#"
   xmlns:dc="http://purl.org/dc/elements/1.1/">
  <metadata
     id="metadata37">
    <rdf:RDF>
      <cc:Work
         rdf:about="">
        <dc:format>image/svg+xml</dc:format>
        <dc:type
           rdf:resource="http://purl.org/dc/dcmitype/StillImage" />
      </cc:Work>
    </rdf:RDF>
  </metadata>
  <sodipodi:namedview
     pagecolor="#ffffff"
     bordercolor="#666666"
     borderopacity="1"
     objecttolerance="10"
     gridtolerance="10"
     guidetolerance="10"
     inkscape:pageopacity="0"
     inkscape:pageshadow="2"
     inkscape:window-width="1366"
     inkscape:window-height="693"
     id="namedview35"
     showgrid="false"
     inkscape:zoom="0.47363281"
     inkscape:cx="364.20619"
     inkscape:cy="512"
     inkscape:window-x="0"
     inkscape:window-y="0"
     inkscape:window-maximized="1"
     inkscape:current-layer="svg33"
     inkscape:pagecheckerboard="0" />
  <defs
     id="defs27">
    <linearGradient
       id="bs-logo-a"
       x1="76.079002"
       x2="523.47998"
       y1="10.798"
       y2="365.94501"
       gradientUnits="userSpaceOnUse">
      <stop
         stop-color="#9013fe"
         id="stop2" />
      <stop
         offset="1"
         stop-color="#6610f2"
         id="stop4" />
    </linearGradient>
    <linearGradient
       id="bs-logo-b"
       x1="193.508"
       x2="293.51401"
       y1="109.74"
       y2="278.87201"
       gradientUnits="userSpaceOnUse">
      <stop
         stop-color="#fff"
         id="stop7" />
      <stop
         offset="1"
         stop-color="#f1e5fc"
         id="stop9" />
    </linearGradient>
    <filter
       id="bs-logo-c"
       width="197"
       height="249"
       x="161.901"
       y="83.457001"
       filterUnits="userSpaceOnUse"
       style="color-interpolation-filters:sRGB">
      <feFlood
         flood-opacity="0"
         result="BackgroundImageFix"
         id="feFlood12" />
      <feColorMatrix
         in="SourceAlpha"
         values="0 0 0 0 0 0 0 0 0 0 0 0 0 0 0 0 0 0 127 0"
         id="feColorMatrix14" />
      <feOffset
         dy="4"
         id="feOffset16" />
      <feGaussianBlur
         stdDeviation="8"
         id="feGaussianBlur18" />
      <feColorMatrix
         values="0 0 0 0 0 0 0 0 0 0 0 0 0 0 0 0 0 0 0.15 0"
         id="feColorMatrix20" />
      <feBlend
         in2="BackgroundImageFix"
         result="effect1_dropShadow"
         id="feBlend22"
         mode="normal" />
      <feBlend
         in="SourceGraphic"
         in2="effect1_dropShadow"
         result="shape"
         id="feBlend24"
         mode="normal" />
    </filter>
  </defs>
  <g
     id="g1111"
     transform="translate(0,139.89257)">
    <path
       inkscape:connector-curvature="0"
       id="path3367"
       style="font-style:normal;font-variant:normal;font-weight:normal;font-stretch:normal;font-size:medium;line-height:125%;font-family:Dean;-inkscape-font-specification:Dean;letter-spacing:0px;word-spacing:0px;fill:#ffd700;fill-opacity:1;stroke:#000000;stroke-width:16.8422px;stroke-linecap:butt;stroke-linejoin:miter;stroke-opacity:1"
       d="m 264.42106,504.65795 q 0,-12.8001 0,-28.2947 0.67421,-15.4947 2.69479,-55.9158 2.69462,-40.421 6.73673,-75.4526 4.0421,-35.7052 12.80005,-78.8211 8.75795,-43.7894 20.21052,-74.1052 12.12632,-30.31578 31.66311,-51.20004 19.53694,-20.88426 43.78957,-20.88426 32.33684,0 61.30515,10.10526 28.96847,10.10527 50.52631,26.27369 21.558,15.49484 39.07374,31.66325 18.18947,15.4947 36.37891,30.3158 18.8632,14.1474 34.3579,19.5368 16.8422,6.0631 32.3369,6.0631 71.4105,0 71.4105,-142.82095 v -6.736887 l 19.5368,-6.7369 q 4.7159,0 8.758,5.38958 4.0421,5.38942 4.0421,14.147367 0,4.0421 9.4315,117.89459 10.1053,113.8527 10.1053,185.9369 0,158.9895 -45.1369,158.9895 -25.6,0 -115.2,-32.3368 -88.92633,-33.0106 -119.24211,-33.0106 -4.71569,-0.6742 -12.12632,-0.6742 -28.96831,0 -28.96831,19.5369 0,7.4105 8.75779,26.9473 0.67421,0.6742 0.67421,2.021 0,10.779 -85.55794,10.779 -45.81047,0 -72.08415,-14.8211 -26.27367,-14.8209 -26.27367,-43.7894 z" />
    <g
       style="font-style:normal;font-variant:normal;font-weight:normal;font-stretch:normal;font-size:2.5px;line-height:125%;font-family:'Liberation Sans';-inkscape-font-specification:'Liberation Sans, Normal';text-align:start;letter-spacing:0px;word-spacing:0px;writing-mode:lr-tb;text-anchor:start;fill:#000000;fill-opacity:1;stroke:#000000;stroke-width:0.2;stroke-linecap:butt;stroke-linejoin:miter;stroke-miterlimit:4;stroke-dasharray:none;stroke-opacity:1"
       id="text3339"
       transform="matrix(16.842104,0,0,16.842104,-4004.084,-7293.6549)">
      <path
         d="m 257.3694,471.40689 -1.49902,-2.64892 q 0.0122,0.10742 0.022,0.21484 0.01,0.0928 0.0147,0.20019 0.007,0.10743 0.007,0.20508 v 2.02881 h -0.63965 v -3.43994 h 0.82276 l 1.52099,2.6709 q -0.0122,-0.10254 -0.022,-0.21485 -0.01,-0.0952 -0.0171,-0.21484 -0.005,-0.11963 -0.005,-0.2417 v -1.99951 h 0.63965 v 3.43994 H 257.369 Z"
         style="font-weight:bold;font-size:5px;fill:#ffff00;stroke:#000000;stroke-width:0.2;stroke-miterlimit:4;stroke-dasharray:none;stroke-opacity:1"
         id="path4186"
         inkscape:connector-curvature="0" />
      <path
         d="m 259.51295,471.45572 q -0.19042,0 -0.34179,-0.0513 -0.14893,-0.0537 -0.25391,-0.15381 -0.10498,-0.10254 -0.16113,-0.25146 -0.0562,-0.14893 -0.0562,-0.33936 0,-0.23437 0.0806,-0.39307 0.083,-0.16113 0.22461,-0.25878 0.1416,-0.1001 0.33203,-0.14405 0.19043,-0.0464 0.40528,-0.0488 l 0.56884,-0.01 v -0.13428 q 0,-0.14404 -0.0268,-0.23926 -0.0244,-0.0976 -0.0732,-0.15869 -0.0488,-0.061 -0.12207,-0.0854 -0.0708,-0.0269 -0.16358,-0.0269 -0.0854,0 -0.15381,0.0171 -0.0659,0.0171 -0.11474,0.061 -0.0488,0.0415 -0.0806,0.11475 -0.0293,0.0708 -0.0415,0.18066 l -0.71533,-0.0342 q 0.0293,-0.17334 0.10742,-0.31494 0.0781,-0.14404 0.21484,-0.24902 0.13916,-0.10498 0.33936,-0.16114 0.20263,-0.0586 0.47363,-0.0586 0.24658,0 0.43945,0.061 0.19287,0.061 0.32715,0.1831 0.13428,0.11963 0.20508,0.29541 0.0708,0.17578 0.0708,0.40772 v 0.96191 q 0,0.0928 0.007,0.16602 0.01,0.0732 0.0317,0.12451 0.0244,0.0488 0.0659,0.0757 0.0439,0.0244 0.1123,0.0244 0.0781,0 0.15137,-0.0147 v 0.37109 q -0.061,0.0147 -0.10986,0.0269 -0.0488,0.0122 -0.0977,0.0195 -0.0488,0.007 -0.10498,0.0122 -0.0537,0.005 -0.12695,0.005 -0.25879,0 -0.3833,-0.12696 -0.12207,-0.12695 -0.14649,-0.37353 h -0.0146 q -0.13672,0.24658 -0.35157,0.3833 -0.2124,0.13672 -0.51758,0.13672 z m 0.79834,-1.27197 -0.35156,0.005 q -0.10986,0.005 -0.20996,0.0195 -0.0977,0.0122 -0.17334,0.0562 -0.0732,0.0415 -0.11719,0.12207 -0.0439,0.0806 -0.0439,0.21973 0,0.18799 0.0854,0.28076 0.0879,0.0903 0.23193,0.0903 0.13184,0 0.23926,-0.0562 0.10742,-0.0562 0.18066,-0.14648 0.0757,-0.0928 0.11719,-0.21241 0.0415,-0.11962 0.0415,-0.24414 v -0.13427 z"
         style="font-weight:bold;font-size:5px;fill:#ffff00;stroke:#000000;stroke-width:0.2;stroke-miterlimit:4;stroke-dasharray:none;stroke-opacity:1"
         id="path4188"
         inkscape:connector-curvature="0" />
      <path
         d="m 262.76247,470.81851 0.61035,-2.05322 h 0.71777 l -1.04492,2.78076 q -0.19775,0.48096 -0.41016,0.68115 -0.23193,0.21729 -0.60791,0.21729 -0.24658,0 -0.43213,-0.0317 v -0.48828 q 0.1294,0.0195 0.23194,0.0195 0.10498,0 0.1831,-0.022 0.0781,-0.022 0.1416,-0.0732 0.12452,-0.10254 0.22461,-0.35157 l 0.0439,-0.11718 -1.04492,-2.61475 h 0.7251 l 0.66162,2.05322 z"
         style="font-weight:bold;font-size:5px;fill:#ffff00;stroke:#000000;stroke-width:0.2;stroke-miterlimit:4;stroke-dasharray:none;stroke-opacity:1"
         id="path4190"
         inkscape:connector-curvature="0" />
      <path
         d="m 265.14528,471.45084 q -0.30274,0 -0.46631,-0.16358 -0.16357,-0.16601 -0.16357,-0.50049 v -1.55761 h -0.33448 v -0.46387 h 0.36866 l 0.21484,-0.62012 h 0.42969 v 0.62012 h 0.50049 v 0.46387 h -0.50049 v 1.37207 q 0,0.19287 0.0732,0.28564 0.0732,0.0903 0.22705,0.0903 0.0635,0 0.11475,-0.01 0.0513,-0.01 0.11474,-0.0244 v 0.42481 q -0.12695,0.0415 -0.26855,0.061 -0.1416,0.022 -0.31006,0.022 z"
         style="font-weight:bold;font-size:5px;fill:#ffff00;stroke:#000000;stroke-width:0.2;stroke-miterlimit:4;stroke-dasharray:none;stroke-opacity:1"
         id="path4192"
         inkscape:connector-curvature="0" />
      <path
         d="m 266.8152,469.29263 q 0.13916,-0.30273 0.34912,-0.43945 0.20996,-0.13672 0.50049,-0.13672 0.23926,0 0.40283,0.0781 0.16602,0.0781 0.26856,0.21484 0.10498,0.13672 0.15136,0.32227 0.0464,0.18554 0.0464,0.40039 v 1.6748 h -0.68359 v -1.47949 q 0,-0.15381 -0.0244,-0.28076 -0.0244,-0.1294 -0.0806,-0.21973 -0.0562,-0.0928 -0.14649,-0.14404 -0.0903,-0.0513 -0.21972,-0.0513 -0.12452,0 -0.22706,0.0562 -0.10009,0.0537 -0.17333,0.15625 -0.0732,0.1001 -0.11475,0.2417 -0.0391,0.13916 -0.0391,0.30762 v 1.41357 h -0.68604 v -3.62305 h 0.68604 v 0.98877 q 0,0.0781 -0.002,0.15869 -0.002,0.0781 -0.007,0.14893 -0.002,0.0684 -0.005,0.12451 -0.002,0.0562 -0.005,0.0879 h 0.01 z"
         style="font-weight:bold;font-size:5px;fill:#ffff00;stroke:#000000;stroke-width:0.2;stroke-miterlimit:4;stroke-dasharray:none;stroke-opacity:1"
         id="path4194"
         inkscape:connector-curvature="0" />
      <path
         d="m 270.27711,471.45572 q -0.28564,0 -0.51513,-0.083 -0.22705,-0.0854 -0.38819,-0.25635 -0.16113,-0.17334 -0.24658,-0.43213 -0.0854,-0.26123 -0.0854,-0.61035 0,-0.37841 0.1001,-0.6372 0.10254,-0.25879 0.27344,-0.41748 0.17334,-0.16114 0.39795,-0.23194 0.22461,-0.0708 0.47363,-0.0708 0.3125,0 0.53223,0.10986 0.22217,0.10743 0.36377,0.30274 0.1416,0.19531 0.20752,0.46875 0.0659,0.27099 0.0659,0.60058 v 0.0195 h -1.69433 q 0,0.16601 0.0293,0.31005 0.0293,0.14161 0.0952,0.24659 0.0659,0.10254 0.1709,0.16357 0.10498,0.0586 0.2539,0.0586 0.18067,0 0.29541,-0.0757 0.11475,-0.0781 0.16358,-0.23926 l 0.64697,0.0562 q -0.0439,0.1123 -0.12451,0.23925 -0.0781,0.12696 -0.20996,0.23438 -0.13184,0.10498 -0.32959,0.17578 -0.19531,0.0684 -0.47608,0.0684 z m 0,-2.30713 q -0.10498,0 -0.19775,0.0366 -0.0903,0.0342 -0.15869,0.11231 -0.0659,0.0757 -0.10742,0.19775 -0.0415,0.12207 -0.0464,0.29297 h 1.02539 q -0.0195,-0.31983 -0.15381,-0.47852 -0.13427,-0.16113 -0.36133,-0.16113 z"
         style="font-weight:bold;font-size:5px;fill:#ffff00;stroke:#000000;stroke-width:0.2;stroke-miterlimit:4;stroke-dasharray:none;stroke-opacity:1"
         id="path4196"
         inkscape:connector-curvature="0" />
      <path
         d="m 273.06032,471.45572 q -0.28565,0 -0.51514,-0.083 -0.22705,-0.0854 -0.38818,-0.25635 -0.16114,-0.17334 -0.24658,-0.43213 -0.0854,-0.26123 -0.0854,-0.61035 0,-0.37841 0.10009,-0.6372 0.10254,-0.25879 0.27344,-0.41748 0.17334,-0.16114 0.39795,-0.23194 0.22461,-0.0708 0.47363,-0.0708 0.3125,0 0.53223,0.10986 0.22217,0.10743 0.36377,0.30274 0.1416,0.19531 0.20752,0.46875 0.0659,0.27099 0.0659,0.60058 v 0.0195 h -1.69434 q 0,0.16601 0.0293,0.31005 0.0293,0.14161 0.0952,0.24659 0.0659,0.10254 0.1709,0.16357 0.10498,0.0586 0.25391,0.0586 0.18066,0 0.29541,-0.0757 0.11474,-0.0781 0.16357,-0.23926 l 0.64697,0.0562 q -0.0439,0.1123 -0.12451,0.23925 -0.0781,0.12696 -0.20996,0.23438 -0.13183,0.10498 -0.32959,0.17578 -0.19531,0.0684 -0.47607,0.0684 z m 0,-2.30713 q -0.10498,0 -0.19776,0.0366 -0.0903,0.0342 -0.15869,0.11231 -0.0659,0.0757 -0.10742,0.19775 -0.0415,0.12207 -0.0464,0.29297 h 1.02539 q -0.0195,-0.31983 -0.1538,-0.47852 -0.13428,-0.16113 -0.36133,-0.16113 z"
         style="font-weight:bold;font-size:5px;fill:#ffff00;stroke:#000000;stroke-width:0.2;stroke-miterlimit:4;stroke-dasharray:none;stroke-opacity:1"
         id="path4198"
         inkscape:connector-curvature="0" />
      <path
         d="m 275.43825,471.45084 q -0.30274,0 -0.46631,-0.16358 -0.16358,-0.16601 -0.16358,-0.50049 v -1.55761 h -0.33447 v -0.46387 h 0.36865 l 0.21485,-0.62012 h 0.42969 v 0.62012 h 0.50048 v 0.46387 h -0.50048 v 1.37207 q 0,0.19287 0.0732,0.28564 0.0732,0.0903 0.22705,0.0903 0.0635,0 0.11474,-0.01 0.0513,-0.01 0.11475,-0.0244 v 0.42481 q -0.12695,0.0415 -0.26855,0.061 -0.14161,0.022 -0.31006,0.022 z"
         style="font-weight:bold;font-size:5px;fill:#ffff00;stroke:#000000;stroke-width:0.2;stroke-miterlimit:4;stroke-dasharray:none;stroke-opacity:1"
         id="path4200"
         inkscape:connector-curvature="0" />
      <path
         d="m 276.42213,471.40689 v -0.74463 h 0.70557 v 0.74463 z"
         style="font-weight:bold;font-size:5px;fill:#ffff00;stroke:#000000;stroke-width:0.2;stroke-miterlimit:4;stroke-dasharray:none;stroke-opacity:1"
         id="path4202"
         inkscape:connector-curvature="0" />
      <path
         d="m 278.62428,469.22916 v 2.17773 h -0.68359 v -2.17773 h -0.38574 v -0.46387 h 0.38574 v -0.27588 q 0,-0.15137 0.0366,-0.27832 0.0366,-0.12939 0.12451,-0.22461 0.0879,-0.0952 0.23682,-0.14893 0.14892,-0.0537 0.37109,-0.0537 0.11719,0 0.22949,0.0122 0.11475,0.0122 0.20508,0.0269 v 0.44189 q -0.0439,-0.01 -0.1001,-0.0146 -0.0537,-0.007 -0.10009,-0.007 -0.0952,0 -0.15869,0.0195 -0.061,0.0195 -0.0977,0.0586 -0.0342,0.0391 -0.0488,0.1001 -0.0147,0.0586 -0.0147,0.13672 v 0.20752 h 0.52002 v 0.46387 h -0.52002 z"
         style="font-weight:bold;font-size:5px;fill:#ffff00;stroke:#000000;stroke-width:0.2;stroke-miterlimit:4;stroke-dasharray:none;stroke-opacity:1"
         id="path4204"
         inkscape:connector-curvature="0" />
      <path
         d="m 279.48854,471.40689 v -2.02148 q 0,-0.0854 -0.002,-0.18067 0,-0.0952 -0.005,-0.18066 -0.002,-0.0879 -0.005,-0.15625 -0.002,-0.0708 -0.007,-0.10254 h 0.6543 q 0.005,0.0293 0.01,0.10254 0.005,0.0708 0.01,0.15625 0.005,0.0854 0.007,0.1709 0.005,0.083 0.005,0.13427 h 0.01 q 0.0513,-0.14404 0.10254,-0.25634 0.0513,-0.11475 0.11963,-0.19287 0.0708,-0.0806 0.16846,-0.12207 0.0977,-0.0439 0.24169,-0.0439 0.061,0 0.11963,0.0122 0.061,0.01 0.0928,0.0244 v 0.57373 q -0.0659,-0.0146 -0.13428,-0.0244 -0.0659,-0.0122 -0.15869,-0.0122 -0.25635,0 -0.40039,0.20752 -0.1416,0.20752 -0.1416,0.61523 v 1.29639 h -0.68604 z"
         style="font-weight:bold;font-size:5px;fill:#ffff00;stroke:#000000;stroke-width:0.2;stroke-miterlimit:4;stroke-dasharray:none;stroke-opacity:1"
         id="path4206"
         inkscape:connector-curvature="0" />
    </g>
  </g>
</svg>
